<svg width="19" height="19" viewBox="0 0 19 19" fill="none" xmlns="http://www.w3.org/2000/svg">
<path d="M14.2502 19.0016C14.171 19.0016 14.0919 18.9858 14.0175 18.9541C13.8338 18.8757 9.5 16.9883 9.5 13.1066V9.92553C9.5 9.67139 9.66151 9.44576 9.90298 9.36342L14.0594 7.94944C14.1829 7.90748 14.3175 7.90748 14.441 7.94944L18.5975 9.36342C18.8389 9.44576 19.0004 9.67139 19.0004 9.92553V13.1066C19.0004 16.9883 14.6667 18.8757 14.483 18.9549C14.4086 18.9858 14.3294 19.0016 14.2502 19.0016ZM10.6876 10.3507V13.1058C10.6876 15.7445 13.4237 17.3311 14.2502 17.7491C15.0768 17.3311 17.8129 15.7445 17.8129 13.1058V10.3507L14.2502 9.13858L10.6876 10.3507Z" fill="#575757"/>
<path d="M14.052 15.4383C13.8952 15.4383 13.7432 15.3765 13.6324 15.2641L12.049 13.6807C11.817 13.4487 11.817 13.0727 12.049 12.8407C12.2809 12.6087 12.657 12.6087 12.889 12.8407L13.9886 13.9404L15.9521 11.3214C16.1468 11.0594 16.5205 11.0055 16.7834 11.2035C17.0454 11.3998 17.0985 11.7719 16.9013 12.0348L14.5262 15.2016C14.4233 15.3393 14.2657 15.4248 14.0932 15.4375C14.0797 15.4375 14.0662 15.4383 14.052 15.4383Z" fill="#575757"/>
<path d="M8.38413 16.6258H2.17718C0.976169 16.6258 0 15.6496 0 14.4486V2.17718C0 0.976169 0.976169 0 2.17718 0H11.2818C12.4828 0 13.4589 0.976169 13.4589 2.17718V6.47613C13.4589 6.80389 13.1929 7.0699 12.8652 7.0699C12.5374 7.0699 12.2714 6.80389 12.2714 6.47613V2.17718C12.2714 1.6317 11.8272 1.18755 11.2818 1.18755H2.17718C1.6317 1.18755 1.18755 1.6317 1.18755 2.17718V14.4486C1.18755 14.9941 1.6317 15.4382 2.17718 15.4382H8.38413C8.71189 15.4382 8.97791 15.7042 8.97791 16.032C8.97791 16.3597 8.71189 16.6258 8.38413 16.6258Z" fill="#575757"/>
<path d="M10.49 7.52154H2.96878C2.64101 7.52154 2.375 7.25553 2.375 6.92776C2.375 6.6 2.64101 6.33398 2.96878 6.33398H10.49C10.8177 6.33398 11.0837 6.6 11.0837 6.92776C11.0837 7.25553 10.8177 7.52154 10.49 7.52154Z" fill="#575757"/>
<path d="M7.32314 10.6876H2.96878C2.64101 10.6876 2.375 10.4215 2.375 10.0938C2.375 9.76601 2.64101 9.5 2.96878 9.5H7.32314C7.65091 9.5 7.91692 9.76601 7.91692 10.0938C7.91692 10.4215 7.65091 10.6876 7.32314 10.6876Z" fill="#575757"/>
<path d="M6.53144 4.35357H2.96878C2.64101 4.35357 2.375 4.08756 2.375 3.75979C2.375 3.43203 2.64101 3.16602 2.96878 3.16602H6.53144C6.8592 3.16602 7.12521 3.43203 7.12521 3.75979C7.12521 4.08756 6.8592 4.35357 6.53144 4.35357Z" fill="#575757"/>
</svg>
