<svg width="9" height="10" viewBox="0 0 9 10" fill="none" xmlns="http://www.w3.org/2000/svg">
<path fill-rule="evenodd" clip-rule="evenodd" d="M6.66065 2.67451C6.66065 2.86707 6.50437 3.02336 6.3118 3.02336C6.11924 3.02336 5.96295 2.86707 5.96295 2.67451V1.97681C5.96295 1.27028 5.39038 0.697698 4.68384 0.697698C3.97731 0.697698 3.40473 1.27028 3.40473 1.97681V2.67451C3.40473 2.86707 3.24844 3.02336 3.05588 3.02336C2.86332 3.02336 2.70703 2.86707 2.70703 2.67451V1.97681C2.70703 0.885146 3.59218 0 4.68384 0C5.77551 0 6.66065 0.885146 6.66065 1.97681V2.67451Z" fill="#CA2026"/>
<path fill-rule="evenodd" clip-rule="evenodd" d="M8.09891 3.30295L8.47101 8.88453C8.49009 9.17384 8.38869 9.45757 8.19101 9.66921C7.99286 9.88084 7.7161 10.0008 7.42679 10.0008H1.94103C1.65172 10.0008 1.37496 9.88084 1.17682 9.66921C0.979136 9.45757 0.877737 9.17384 0.896808 8.88453L1.26891 3.30295C1.30566 2.75316 1.76242 2.32617 2.31313 2.32617H7.05469C7.6054 2.32617 8.06216 2.75316 8.09891 3.30295ZM5.84023 4.38578C5.63464 4.81788 5.19416 5.11696 4.68391 5.11696C4.17366 5.11696 3.73318 4.81788 3.52759 4.38578C3.44527 4.21182 3.23689 4.13786 3.06293 4.22065C2.88897 4.30298 2.81501 4.51136 2.89734 4.68532C3.21456 5.35325 3.89551 5.81466 4.68391 5.81466C5.47231 5.81466 6.15326 5.35325 6.47048 4.68532C6.55281 4.51136 6.47885 4.30298 6.3049 4.22065C6.13094 4.13786 5.92256 4.21182 5.84023 4.38578Z" fill="#CA2026"/>
</svg>
