<svg width="52" height="52" viewBox="0 0 52 52" fill="none" xmlns="http://www.w3.org/2000/svg">
<path d="M37.7152 28.8559C37.6061 28.856 37.498 28.8344 37.3973 28.7926C37.2965 28.7507 37.2051 28.6894 37.1281 28.612L35.0169 26.5008C34.9396 26.4236 34.8783 26.3319 34.8365 26.2309C34.7947 26.1299 34.7731 26.0217 34.7731 25.9125C34.7731 25.8032 34.7947 25.695 34.8365 25.594C34.8783 25.4931 34.9396 25.4013 35.0169 25.3241C35.3838 24.9571 35.5898 24.4595 35.5898 23.9406C35.5898 23.4217 35.3838 22.9241 35.0169 22.5572L33.0877 20.629C32.7205 20.2627 32.2229 20.0569 31.7042 20.0569C31.1855 20.0569 30.688 20.2627 30.3208 20.629C30.2435 20.7063 30.1518 20.7676 30.0508 20.8094C29.9499 20.8512 29.8417 20.8728 29.7324 20.8728C29.6231 20.8728 29.5149 20.8512 29.414 20.8094C29.313 20.7676 29.2213 20.7063 29.144 20.629L27.0328 18.5178C26.9555 18.4405 26.8942 18.3488 26.8524 18.2479C26.8106 18.1469 26.7891 18.0387 26.7891 17.9294C26.7891 17.8201 26.8106 17.7119 26.8524 17.611C26.8942 17.51 26.9555 17.4183 27.0328 17.341L35.4048 8.96904C35.7082 8.66554 36.0684 8.42478 36.4649 8.26052C36.8614 8.09626 37.2863 8.01172 37.7154 8.01172C38.1446 8.01172 38.5695 8.09626 38.966 8.26052C39.3624 8.42478 39.7227 8.66554 40.0261 8.96904L46.6748 15.6193C47.2868 16.2325 47.6306 17.0635 47.6306 17.9299C47.6306 18.7963 47.2868 19.6273 46.6748 20.2406L38.3028 28.6126C38.2257 28.6898 38.1341 28.7511 38.0332 28.7928C37.9324 28.8346 37.8243 28.856 37.7152 28.8559ZM36.7121 25.8441L37.7152 26.8466L45.5001 19.0643C45.8003 18.7632 45.9689 18.3554 45.9689 17.9302C45.9689 17.505 45.8003 17.0972 45.5001 16.7961L38.8488 10.1463C38.5477 9.84611 38.1398 9.67754 37.7147 9.67754C37.2895 9.67754 36.8816 9.84611 36.5805 10.1463L28.7977 17.9297L29.8003 18.9322C30.4946 18.5046 31.3126 18.3234 32.1226 18.4177C32.9325 18.5121 33.687 18.8765 34.2645 19.4522L36.1921 21.3804C36.7679 21.9577 37.1323 22.7121 37.2267 23.522C37.321 24.3319 37.1397 25.1499 36.7121 25.8441Z" fill="#D93243"/>
<path d="M45.7396 20.8328C45.6303 20.833 45.522 20.8115 45.4211 20.7697C45.3202 20.7278 45.2285 20.6664 45.1514 20.5889L35.0572 10.4947C34.9799 10.4174 34.9186 10.3257 34.8768 10.2247C34.835 10.1238 34.8135 10.0156 34.8135 9.90631C34.8135 9.79704 34.835 9.68884 34.8768 9.58788C34.9186 9.48693 34.9799 9.3952 35.0572 9.31793C35.1345 9.24067 35.2262 9.17937 35.3271 9.13756C35.4281 9.09574 35.5363 9.07422 35.6456 9.07422C35.7548 9.07422 35.863 9.09574 35.964 9.13756C36.065 9.17937 36.1567 9.24067 36.234 9.31793L46.3282 19.4122C46.4447 19.5285 46.524 19.6768 46.5562 19.8383C46.5883 19.9998 46.5719 20.1672 46.5088 20.3193C46.4458 20.4714 46.3391 20.6014 46.2021 20.6928C46.0652 20.7842 45.9042 20.8329 45.7396 20.8328Z" fill="#D93243"/>
<path d="M43.9099 22.6606C43.8006 22.6608 43.6924 22.6393 43.5915 22.5974C43.4905 22.5556 43.3989 22.4942 43.3218 22.4167L33.2281 12.3235C33.1489 12.2467 33.0859 12.1549 33.0425 12.0535C32.9992 11.9521 32.9764 11.8431 32.9756 11.7328C32.9748 11.6225 32.9959 11.5132 33.0377 11.4111C33.0795 11.3091 33.1412 11.2163 33.2191 11.1383C33.2971 11.0603 33.3898 10.9986 33.4918 10.9568C33.5939 10.9149 33.7032 10.8938 33.8135 10.8946C33.9238 10.8953 34.0328 10.918 34.1342 10.9613C34.2356 11.0046 34.3275 11.0677 34.4043 11.1467L44.4985 21.2405C44.6149 21.3569 44.694 21.5051 44.7261 21.6665C44.7582 21.8279 44.7416 21.9952 44.6786 22.1472C44.6156 22.2992 44.509 22.4291 44.3721 22.5205C44.2353 22.6118 44.0744 22.6606 43.9099 22.6606Z" fill="#D93243"/>
<path d="M17.4112 40.9727C16.7777 40.9723 16.164 40.7522 15.6745 40.35C15.1851 39.9478 14.8503 39.3883 14.7271 38.767C14.6039 38.1456 14.7 37.5007 14.9989 36.9422C15.2978 36.3837 15.7812 35.9461 16.3666 35.704C16.952 35.4619 17.6032 35.4302 18.2093 35.6144C18.8154 35.7986 19.3389 36.1872 19.6907 36.7141C20.0424 37.241 20.2005 37.8735 20.1382 38.5039C20.0758 39.1343 19.7968 39.7236 19.3487 40.1714C19.0944 40.4259 18.7923 40.6277 18.4598 40.7652C18.1273 40.9027 17.771 40.9732 17.4112 40.9727ZM17.4112 37.157C17.1623 37.1571 16.9211 37.2435 16.7288 37.4015C16.5365 37.5594 16.4049 37.7792 16.3564 38.0233C16.3079 38.2675 16.3456 38.5208 16.463 38.7403C16.5804 38.9598 16.7702 39.1317 17.0002 39.2269C17.2302 39.3221 17.486 39.3346 17.7242 39.2624C17.9623 39.1901 18.1681 39.0374 18.3063 38.8305C18.4446 38.6235 18.5068 38.375 18.4824 38.1273C18.458 37.8796 18.3484 37.6481 18.1725 37.4721C18.0727 37.3718 17.9541 37.2924 17.8234 37.2383C17.6927 37.1842 17.5526 37.1566 17.4112 37.157Z" fill="#D93243"/>
<path d="M26.0002 28.2475C25.8325 28.2475 25.6687 28.1968 25.5303 28.102C25.392 28.0072 25.2855 27.8729 25.2248 27.7165C25.1641 27.5601 25.1521 27.3891 25.1904 27.2258C25.2286 27.0625 25.3153 26.9146 25.4391 26.8014L33.3041 19.6145C33.3837 19.535 33.4785 19.4725 33.5829 19.4307C33.6873 19.3889 33.7991 19.3687 33.9115 19.3713C34.0239 19.3739 34.1347 19.3993 34.237 19.4459C34.3393 19.4925 34.4312 19.5594 34.5069 19.6425C34.5827 19.7256 34.6408 19.8231 34.6778 19.9293C34.7148 20.0355 34.7299 20.1481 34.7222 20.2603C34.7145 20.3725 34.6841 20.4819 34.6329 20.582C34.5817 20.6821 34.5107 20.7708 34.4242 20.8427L26.5613 28.0302C26.4079 28.1701 26.2078 28.2476 26.0002 28.2475Z" fill="#D93243"/>
<path d="M28.3229 30.3741C28.1616 30.3741 28.0037 30.3271 27.8685 30.2389C27.7334 30.1507 27.6268 30.0251 27.5618 29.8774C27.4967 29.7297 27.476 29.5662 27.5023 29.407C27.5285 29.2478 27.6004 29.0996 27.7093 28.9805L34.8006 21.2205C34.8736 21.1374 34.9624 21.0697 35.0619 21.0213C35.1614 20.9729 35.2696 20.9448 35.3801 20.9388C35.4905 20.9327 35.6011 20.9487 35.7053 20.9859C35.8095 21.023 35.9053 21.0806 35.987 21.1553C36.0687 21.2299 36.1346 21.3201 36.181 21.4205C36.2275 21.5209 36.2534 21.6296 36.2573 21.7402C36.2612 21.8508 36.243 21.961 36.2037 22.0645C36.1645 22.1679 36.1051 22.2625 36.0288 22.3427L28.9376 30.1032C28.8596 30.1886 28.7647 30.2568 28.6588 30.3034C28.553 30.3501 28.4386 30.3742 28.3229 30.3741Z" fill="#D93243"/>
<path d="M17.4109 43.9879C16.0331 43.9877 14.701 43.4932 13.6568 42.5941C12.6127 41.6951 11.9259 40.4512 11.7211 39.0886C11.5164 37.726 11.8074 36.3352 12.5412 35.169C13.275 34.0028 14.4029 33.1386 15.7199 32.7335C15.8375 32.6979 15.9615 32.6887 16.0831 32.7067C16.2046 32.7247 16.3207 32.7694 16.4229 32.8375C17.0719 33.2676 17.9616 33.2847 18.6901 32.8817C18.8461 32.795 18.9922 32.6916 19.1259 32.5734L23.1153 28.9282C23.1955 28.852 23.2901 28.7925 23.3936 28.7533C23.497 28.714 23.6073 28.6958 23.7178 28.6997C23.8284 28.7036 23.9371 28.7295 24.0375 28.776C24.138 28.8224 24.2281 28.8883 24.3028 28.97C24.3774 29.0517 24.435 29.1475 24.4722 29.2517C24.5093 29.3559 24.5254 29.4665 24.5193 29.5769C24.5132 29.6874 24.4851 29.7956 24.4368 29.8951C24.3884 29.9946 24.3206 30.0834 24.2375 30.1564L20.2434 33.8047L20.2345 33.8125C20.0082 34.0137 19.7604 34.1893 19.4956 34.3362C18.3443 34.9737 16.9949 35.0049 15.879 34.4402C15.3701 34.6464 14.9077 34.9527 14.5192 35.3408C14.0908 35.7696 13.7631 36.2882 13.5597 36.8592C13.3563 37.4301 13.2824 38.0391 13.3433 38.6422C13.4041 39.2452 13.5983 39.8272 13.9116 40.346C14.225 40.8648 14.6497 41.3075 15.1552 41.642C15.6606 41.9765 16.2341 42.1945 16.8341 42.2802C17.4341 42.3659 18.0456 42.3172 18.6245 42.1375C19.2034 41.9579 19.7351 41.6519 20.1812 41.2415C20.6272 40.8312 20.9765 40.3269 21.2038 39.765C20.6401 38.6491 20.6713 37.2997 21.3078 36.1479C21.4551 35.8843 21.6309 35.6378 21.832 35.4126L21.8403 35.4037L25.3856 31.524C25.4586 31.4409 25.5475 31.3731 25.647 31.3247C25.7465 31.2764 25.8547 31.2483 25.9651 31.2422C26.0756 31.2361 26.1862 31.2522 26.2904 31.2893C26.3946 31.3265 26.4904 31.3841 26.572 31.4587C26.6537 31.5334 26.7197 31.6235 26.7661 31.724C26.8125 31.8244 26.8384 31.9331 26.8423 32.0437C26.8462 32.1542 26.828 32.2645 26.7888 32.3679C26.7496 32.4714 26.6901 32.566 26.6139 32.6462L23.0732 36.5212C22.955 36.6549 22.8516 36.801 22.7648 36.957C22.3618 37.685 22.379 38.5752 22.809 39.2237C22.8773 39.326 22.922 39.4421 22.94 39.5638C22.958 39.6854 22.9488 39.8096 22.913 39.9272C22.5507 41.1033 21.821 42.1323 20.8311 42.8635C19.8412 43.5946 18.6431 43.9894 17.4125 43.99L17.4109 43.9879Z" fill="#D93243"/>
<path d="M14.2851 28.8549C14.1758 28.8551 14.0674 28.8336 13.9664 28.7918C13.8654 28.7499 13.7736 28.6885 13.6965 28.611L5.32446 20.239C4.71241 19.6258 4.36865 18.7948 4.36865 17.9284C4.36865 17.062 4.71241 16.231 5.32446 15.6178L11.9747 8.96904C12.2781 8.66554 12.6384 8.42478 13.0348 8.26052C13.4313 8.09626 13.8562 8.01172 14.2854 8.01172C14.7145 8.01172 15.1394 8.09626 15.5359 8.26052C15.9324 8.42478 16.2926 8.66554 16.596 8.96904L24.968 17.341C25.0453 17.4183 25.1066 17.51 25.1484 17.611C25.1902 17.7119 25.2117 17.8201 25.2117 17.9294C25.2117 18.0387 25.1902 18.1469 25.1484 18.2479C25.1066 18.3488 25.0453 18.4405 24.968 18.5178L22.8568 20.629C22.7795 20.7063 22.6878 20.7676 22.5868 20.8094C22.4859 20.8512 22.3777 20.8728 22.2684 20.8728C22.1591 20.8728 22.0509 20.8512 21.95 20.8094C21.849 20.7676 21.7573 20.7063 21.68 20.629C21.3128 20.2627 20.8153 20.0569 20.2966 20.0569C19.7779 20.0569 19.2803 20.2627 18.9131 20.629L16.9849 22.5572C16.6186 22.9244 16.4129 23.4219 16.4129 23.9406C16.4129 24.4593 16.6186 24.9569 16.9849 25.3241C17.0622 25.4013 17.1235 25.4931 17.1653 25.594C17.2072 25.695 17.2287 25.8032 17.2287 25.9125C17.2287 26.0217 17.2072 26.1299 17.1653 26.2309C17.1235 26.3319 17.0622 26.4236 16.9849 26.5008L14.8722 28.611C14.7952 28.6883 14.7037 28.7497 14.603 28.7915C14.5022 28.8334 14.3942 28.8549 14.2851 28.8549ZM14.2851 9.67624C14.0746 9.67574 13.866 9.71682 13.6714 9.79714C13.4768 9.87745 13.2999 9.99541 13.151 10.1442L6.50018 16.795C6.19998 17.0961 6.03141 17.504 6.03141 17.9292C6.03141 18.3543 6.19998 18.7622 6.50018 19.0633L14.2851 26.8461L15.2882 25.843C14.8604 25.1488 14.679 24.3307 14.7734 23.5207C14.8677 22.7107 15.2323 21.9562 15.8082 21.3788L17.7358 19.4512C18.3132 18.8755 19.0678 18.511 19.8777 18.4167C20.6876 18.3224 21.5057 18.5036 22.2 18.9312L23.2026 17.9286L15.4197 10.1453C15.2709 9.9963 15.0941 9.87818 14.8994 9.7977C14.7048 9.71721 14.4962 9.67593 14.2856 9.67624H14.2851Z" fill="#D93243"/>
<path d="M6.26039 20.8328C6.09574 20.8329 5.93475 20.7842 5.79781 20.6928C5.66087 20.6014 5.55413 20.4714 5.4911 20.3193C5.42808 20.1672 5.4116 19.9998 5.44376 19.8383C5.47591 19.6768 5.55526 19.5285 5.67175 19.4122L15.766 9.31793C15.8433 9.24067 15.935 9.17937 16.0359 9.13756C16.1369 9.09574 16.2451 9.07422 16.3544 9.07422C16.4636 9.07422 16.5718 9.09574 16.6728 9.13756C16.7738 9.17937 16.8655 9.24067 16.9428 9.31793C17.02 9.3952 17.0813 9.48693 17.1231 9.58788C17.1649 9.68884 17.1865 9.79704 17.1865 9.90631C17.1865 10.0156 17.1649 10.1238 17.1231 10.2247C17.0813 10.3257 17.02 10.4174 16.9428 10.4947L6.84851 20.5889C6.77143 20.6664 6.67977 20.7278 6.57883 20.7697C6.47789 20.8115 6.36966 20.833 6.26039 20.8328Z" fill="#D93243"/>
<path d="M8.08995 22.6604C7.92541 22.6604 7.76455 22.6117 7.62772 22.5203C7.49089 22.4289 7.38423 22.299 7.32122 22.147C7.25822 21.995 7.2417 21.8277 7.27375 21.6663C7.30581 21.5049 7.385 21.3567 7.50131 21.2403L17.5961 11.1455C17.7523 10.9896 17.964 10.9021 18.1847 10.9023C18.4053 10.9025 18.6169 10.9904 18.7728 11.1466C18.9287 11.3028 19.0162 11.5145 19.016 11.7352C19.0158 11.9559 18.928 12.1674 18.7718 12.3233L8.67807 22.4165C8.60098 22.494 8.50933 22.5554 8.40839 22.5973C8.30745 22.6391 8.19922 22.6606 8.08995 22.6604Z" fill="#D93243"/>
<path d="M34.5886 40.9717C33.9553 40.9711 33.3418 40.7509 32.8526 40.3487C32.3634 39.9465 32.0287 39.3871 31.9057 38.7658C31.7826 38.1446 31.8788 37.4999 32.1777 36.9416C32.4767 36.3832 32.9599 35.9458 33.5452 35.7038C34.1305 35.4618 34.7815 35.4302 35.3875 35.6144C35.9935 35.7986 36.5168 36.1872 36.8684 36.7139C37.22 37.2407 37.3781 37.873 37.3158 38.5033C37.2535 39.1335 36.9746 39.7227 36.5267 40.1704C36.2724 40.425 35.9702 40.6269 35.6376 40.7644C35.305 40.902 34.9485 40.9724 34.5886 40.9717ZM34.5886 37.1559C34.3397 37.1561 34.0986 37.2425 33.9063 37.4004C33.7139 37.5584 33.5823 37.7782 33.5339 38.0223C33.4854 38.2664 33.5231 38.5198 33.6405 38.7393C33.7578 38.9587 33.9477 39.1307 34.1777 39.2259C34.4076 39.3211 34.6635 39.3336 34.9016 39.2613C35.1398 39.189 35.3455 39.0364 35.4838 38.8294C35.622 38.6225 35.6843 38.374 35.6598 38.1263C35.6354 37.8786 35.5259 37.647 35.3499 37.4711C35.2502 37.3708 35.1315 37.2913 35.0008 37.2373C34.8702 37.1832 34.7301 37.1555 34.5886 37.1559Z" fill="#D93243"/>
<path d="M34.5888 43.9855C33.3582 43.9863 32.1598 43.5923 31.1698 42.8615C30.1797 42.1307 29.4501 41.1016 29.0883 39.9254C29.0525 39.8077 29.0433 39.6836 29.0613 39.5619C29.0793 39.4403 29.124 39.3241 29.1923 39.2218C29.6223 38.5734 29.6395 37.6837 29.2365 36.9551C29.15 36.7993 29.0468 36.6534 28.9286 36.5199L15.9708 22.3421C15.8219 22.1792 15.7438 21.9637 15.7538 21.7433C15.7637 21.5228 15.8609 21.3153 16.0238 21.1664C16.1867 21.0175 16.4022 20.9395 16.6226 20.9494C16.8431 20.9594 17.0506 21.0565 17.1995 21.2194L30.16 35.4019L30.1678 35.4102C30.3691 35.6366 30.5447 35.8846 30.6914 36.1497C31.329 37.3015 31.3596 38.6503 30.7954 39.7657C31.0486 40.392 31.4529 40.9459 31.9724 41.3778C32.4918 41.8097 33.1101 42.1062 33.772 42.2408C34.434 42.3754 35.119 42.344 35.7659 42.1493C36.4127 41.9546 37.0013 41.6028 37.479 41.1251C37.9567 40.6475 38.3086 40.059 38.5033 39.4121C38.6981 38.7653 38.7296 38.0803 38.595 37.4183C38.4604 36.7563 38.164 36.138 37.7321 35.6185C37.3003 35.0991 36.7465 34.6947 36.1202 34.4415C35.0048 35.0046 33.6554 34.9739 32.5036 34.3375C32.2387 34.191 31.9909 34.0155 31.7647 33.8143L31.7564 33.8065L17.576 20.845C17.4131 20.6961 17.3159 20.4886 17.306 20.2681C17.296 20.0477 17.3741 19.8322 17.523 19.6693C17.6718 19.5064 17.8793 19.4092 18.0998 19.3993C18.3203 19.3893 18.5357 19.4674 18.6987 19.6163L32.8744 32.5726C33.0076 32.6906 33.1534 32.7936 33.3091 32.8799C34.0371 33.2834 34.9279 33.2663 35.5763 32.8362C35.6786 32.768 35.7948 32.7232 35.9164 32.7053C36.0381 32.6873 36.1622 32.6965 36.2799 32.7322C37.5969 33.1369 38.7249 34.0009 39.4588 35.1669C40.1927 36.333 40.4838 37.7237 40.279 39.0862C40.0742 40.4487 39.3873 41.6925 38.343 42.5913C37.2988 43.4901 35.9666 43.9843 34.5888 43.984V43.9855Z" fill="#D93243"/>
</svg>
