<svg width="42" height="34" viewBox="0 0 42 34" fill="none" xmlns="http://www.w3.org/2000/svg">
<path d="M30.8005 20.7734H28.0005V22.1658H30.8005V20.7734Z" fill="#D93243"/>
<path d="M7.70029 29.125H6.30029V30.5173H7.70029V29.125Z" fill="#D93243"/>
<path d="M33.5997 29.125H32.1997V30.5173H33.5997V29.125Z" fill="#D93243"/>
<path d="M41.517 17.6923L38.1129 11.4268C37.9329 11.0954 37.666 10.8186 37.3407 10.6257C37.0154 10.4328 36.6437 10.331 36.2649 10.331H26.6847L4.5374 0.065383C4.45421 0.0265911 4.36411 0.0045873 4.27231 0.000644003C4.18052 -0.0032993 4.08884 0.0108962 4.0026 0.0424096C3.91613 0.073616 3.83669 0.121466 3.76883 0.183223C3.70097 0.24498 3.64601 0.319434 3.6071 0.402327L2.4241 2.92941C2.38495 3.01243 2.36267 3.10232 2.35855 3.19393C2.35443 3.28554 2.36855 3.37705 2.4001 3.46322C2.43164 3.54938 2.48 3.6285 2.54238 3.69602C2.60476 3.76355 2.67994 3.81815 2.7636 3.8567L2.8 3.87132V7.54638C2.8 7.73101 2.87375 7.90809 3.00502 8.03864C3.1363 8.1692 3.31435 8.24254 3.5 8.24254C3.63845 8.24254 3.77378 8.28337 3.8889 8.35987C4.00401 8.43636 4.09373 8.54509 4.14672 8.6723C4.1997 8.79951 4.21356 8.93948 4.18655 9.07452C4.15954 9.20957 4.09287 9.33361 3.99497 9.43097C3.89708 9.52833 3.77235 9.59464 3.63656 9.6215C3.50078 9.64836 3.36003 9.63457 3.23212 9.58188C3.10421 9.52919 2.99489 9.43996 2.91797 9.32548C2.84105 9.21099 2.8 9.0764 2.8 8.93871H1.4C1.40007 9.32158 1.50597 9.69707 1.70613 10.0241C1.90628 10.3512 2.19298 10.6172 2.53489 10.7932C2.87681 10.9691 3.26078 11.0482 3.64485 11.0218C4.02891 10.9954 4.39828 10.8645 4.7126 10.6434C5.02691 10.4224 5.27407 10.1196 5.42706 9.76827C5.58005 9.41693 5.63298 9.03052 5.58007 8.65128C5.52716 8.27204 5.37045 7.91457 5.12706 7.61792C4.88367 7.32128 4.56296 7.09688 4.2 6.96926V4.52015L22.4 12.957V22.862H0.7C0.514348 22.862 0.336301 22.9354 0.205025 23.0659C0.0737497 23.1965 0 23.3736 0 23.5582V29.1275C0 29.4968 0.147499 29.8509 0.41005 30.112C0.672601 30.3731 1.0287 30.5198 1.4 30.5198H2.863C3.02752 31.4927 3.53338 32.3762 4.29075 33.0133C5.04813 33.6504 6.00802 34 7 34C7.99198 34 8.95187 33.6504 9.70925 33.0133C10.4666 32.3762 10.9725 31.4927 11.137 30.5198H28.763C28.9275 31.4927 29.4334 32.3762 30.1907 33.0133C30.9481 33.6504 31.908 34 32.9 34C33.892 34 34.8519 33.6504 35.6092 33.0133C36.3666 32.3762 36.8725 31.4927 37.037 30.5198H39.9C40.4569 30.5198 40.9911 30.2998 41.3849 29.9081C41.7787 29.5165 42 28.9852 42 28.4313V19.4564C42.0013 18.8359 41.8345 18.2265 41.517 17.6923ZM36.8809 12.0889L40.0869 17.9889H29.4V11.7234H36.2649C36.3912 11.7234 36.5151 11.7573 36.6235 11.8217C36.732 11.886 36.8209 11.9783 36.8809 12.0889ZM4.5808 1.62131L25.2 11.179V12.7196L3.99 2.88625L4.5808 1.62131ZM23.8 13.6065L25.2 14.2553V22.862H23.8V13.6065ZM7 32.6083C6.44621 32.6083 5.90486 32.445 5.4444 32.139C4.98394 31.8331 4.62506 31.3981 4.41314 30.8893C4.20121 30.3805 4.14576 29.8206 4.2538 29.2804C4.36184 28.7402 4.62851 28.2441 5.0201 27.8546C5.41169 27.4652 5.9106 27.2 6.45375 27.0925C6.99689 26.9851 7.55988 27.0402 8.07151 27.251C8.58315 27.4617 9.02044 27.8187 9.32811 28.2766C9.63578 28.7345 9.8 29.2729 9.8 29.8237C9.8 30.5622 9.505 31.2705 8.9799 31.7927C8.4548 32.315 7.7426 32.6083 7 32.6083ZM7 25.6467C6.00841 25.6485 5.04939 25.9988 4.29238 26.6358C3.53537 27.2727 3.02909 28.1553 2.863 29.1275H1.4V24.2544H25.2V29.1275H11.137C10.9709 28.1553 10.4646 27.2727 9.70762 26.6358C8.95061 25.9988 7.99158 25.6485 7 25.6467ZM32.9 32.6083C32.3462 32.6083 31.8049 32.445 31.3444 32.139C30.8839 31.8331 30.5251 31.3981 30.3131 30.8893C30.1012 30.3805 30.0458 29.8206 30.1538 29.2804C30.2618 28.7402 30.5285 28.2441 30.9201 27.8546C31.3117 27.4652 31.8106 27.2 32.3537 27.0925C32.8969 26.9851 33.4599 27.0402 33.9715 27.251C34.4831 27.4617 34.9204 27.8187 35.2281 28.2766C35.5358 28.7345 35.7 29.2729 35.7 29.8237C35.7 30.5622 35.405 31.2705 34.8799 31.7927C34.3548 32.315 33.6426 32.6083 32.9 32.6083ZM39.9 29.1275H37.037C36.8725 28.1546 36.3666 27.2712 35.6092 26.6341C34.8519 25.9969 33.892 25.6473 32.9 25.6473C31.908 25.6473 30.9481 25.9969 30.1907 26.6341C29.4334 27.2712 28.9275 28.1546 28.763 29.1275H26.6V11.7234H28V18.685C28 18.8697 28.0737 19.0467 28.205 19.1773C28.3363 19.3078 28.5143 19.3812 28.7 19.3812H40.5895C40.5895 19.4063 40.6 19.4306 40.6 19.4564V20.7735H37.8C37.4287 20.7735 37.0726 20.9202 36.81 21.1813C36.5475 21.4424 36.4 21.7966 36.4 22.1659V23.5582C36.4 23.9275 36.5475 24.2816 36.81 24.5427C37.0726 24.8038 37.4287 24.9505 37.8 24.9505H40.6V26.3428H38.5V27.7352H40.6V28.4313C40.6 28.616 40.5262 28.7931 40.395 28.9236C40.2637 29.0542 40.0856 29.1275 39.9 29.1275ZM40.6 22.1659V23.5582H37.8V22.1659H40.6Z" fill="#D93243"/>
<path d="M6.1712 21.4729H14.8288C14.9713 21.8798 15.2377 22.2326 15.5909 22.4822C15.9441 22.7318 16.3667 22.8659 16.8 22.8659C17.2333 22.8659 17.6559 22.7318 18.0091 22.4822C18.3623 22.2326 18.6286 21.8798 18.7712 21.4729H20.3C20.4856 21.4729 20.6637 21.3995 20.795 21.269C20.9262 21.1384 21 20.9614 21 20.7767V17.9921C21.0001 17.8079 20.9269 17.6312 20.7963 17.5006L19.4026 16.1082C19.3375 16.0433 19.2601 15.9918 19.175 15.9567C19.0898 15.9215 18.9985 15.9035 18.9063 15.9036H17.759L13.0557 11.8944C12.9288 11.7861 12.7672 11.7266 12.6 11.7266H6.4652C6.07497 11.7252 5.69218 11.8326 5.36022 12.0367C5.02826 12.2407 4.76043 12.5331 4.5871 12.8808L3.0674 15.9036H1.4C1.0287 15.9036 0.672601 16.0503 0.41005 16.3114C0.147499 16.5725 0 16.9266 0 17.2959V20.7767C0 20.9614 0.0737497 21.1384 0.205025 21.269C0.336301 21.3995 0.514348 21.4729 0.7 21.4729H2.2288C2.37135 21.8798 2.63771 22.2326 2.99092 22.4822C3.34413 22.7318 3.7667 22.8659 4.2 22.8659C4.6333 22.8659 5.05586 22.7318 5.40908 22.4822C5.76229 22.2326 6.02865 21.8798 6.1712 21.4729ZM16.8 21.4729C16.6616 21.4729 16.5262 21.4321 16.4111 21.3556C16.296 21.2791 16.2063 21.1703 16.1533 21.0431C16.1003 20.9159 16.0864 20.776 16.1134 20.6409C16.1405 20.5059 16.2071 20.3818 16.305 20.2845C16.4029 20.1871 16.5276 20.1208 16.6634 20.0939C16.7992 20.0671 16.94 20.0809 17.0679 20.1336C17.1958 20.1862 17.3051 20.2755 17.382 20.39C17.4589 20.5044 17.5 20.639 17.5 20.7767C17.5 20.9614 17.4262 21.1384 17.295 21.269C17.1637 21.3995 16.9856 21.4729 16.8 21.4729ZM15.61 15.9036H10.5V13.1189H12.341L15.61 15.9036ZM5.8394 13.5039C5.8971 13.388 5.98633 13.2904 6.09694 13.2224C6.20755 13.1543 6.33513 13.1185 6.4652 13.1189H9.1V15.9036H4.6326L5.8394 13.5039ZM1.4 17.2959H18.6158L19.6 18.2796V20.0806H18.7712C18.6286 19.6736 18.3623 19.3209 18.0091 19.0713C17.6559 18.8217 17.2333 18.6876 16.8 18.6876C16.3667 18.6876 15.9441 18.8217 15.5909 19.0713C15.2377 19.3209 14.9713 19.6736 14.8288 20.0806H6.1712C6.02865 19.6736 5.76229 19.3209 5.40908 19.0713C5.05586 18.8217 4.6333 18.6876 4.2 18.6876C3.7667 18.6876 3.34413 18.8217 2.99092 19.0713C2.63771 19.3209 2.37135 19.6736 2.2288 20.0806H1.4V17.2959ZM4.2 21.4729C4.06155 21.4729 3.92621 21.4321 3.8111 21.3556C3.69599 21.2791 3.60626 21.1703 3.55328 21.0431C3.5003 20.9159 3.48644 20.776 3.51345 20.6409C3.54046 20.5059 3.60713 20.3818 3.70502 20.2845C3.80292 20.1871 3.92765 20.1208 4.06344 20.0939C4.19922 20.0671 4.33997 20.0809 4.46788 20.1336C4.59579 20.1862 4.70511 20.2755 4.78203 20.39C4.85894 20.5044 4.9 20.639 4.9 20.7767C4.9 20.9614 4.82625 21.1384 4.69497 21.269C4.5637 21.3995 4.38565 21.4729 4.2 21.4729Z" fill="#D93243"/>
</svg>
