<svg width="41" height="42" viewBox="0 0 41 42" fill="none" xmlns="http://www.w3.org/2000/svg">
<path d="M23.7403 27.5147C22.7378 26.8153 21.6664 26.2454 20.5459 25.8099C22.0364 24.4552 23.0252 22.5574 23.1973 20.4328C25.4576 18.2303 28.4205 17.0229 31.5967 17.0229C34.0764 17.0229 36.4571 17.7696 38.4822 19.1819C39.2079 19.688 40.2058 19.5103 40.7119 18.7846C41.2177 18.0592 41.04 17.0611 40.3146 16.5553C39.3121 15.8558 38.2404 15.2862 37.12 14.8505C38.7647 13.3556 39.7988 11.2 39.7988 8.80768C39.7988 4.30421 36.1352 0.640625 31.6318 0.640625C27.1286 0.640625 23.465 4.30421 23.465 8.80768C23.465 11.1903 24.4907 13.338 26.1242 14.8323C25.9005 14.9183 25.6781 15.0094 25.4579 15.1063C24.4557 15.5474 23.5135 16.0898 22.6373 16.7267C21.429 13.7247 18.487 11.6001 15.0577 11.6001C10.5546 11.6001 6.89069 15.2637 6.89069 19.7668C6.89069 22.1429 7.91075 24.2847 9.53547 25.7783C5.19153 27.4059 1.66934 30.9015 0.235432 35.3596C-0.240033 36.8379 0.011776 38.4057 0.926421 39.661C1.84107 40.916 3.2562 41.6357 4.80897 41.6357H18.741C19.6253 41.6357 20.3423 40.9188 20.3423 40.0342C20.3423 39.1499 19.6253 38.4329 18.741 38.4329H4.80897C4.29128 38.4329 3.81956 38.193 3.51458 37.7745C3.20959 37.3559 3.12576 36.8332 3.28404 36.3402C4.86684 31.4192 9.69406 27.9824 15.0227 27.9824C17.502 27.9824 19.8831 28.729 21.9082 30.1414C22.6336 30.6475 23.6318 30.4695 24.1379 29.7441C24.6437 29.0187 24.466 28.0205 23.7403 27.5147ZM31.6318 3.84345C34.3691 3.84345 36.596 6.07031 36.596 8.80768C36.596 11.5447 34.3691 13.7719 31.6318 13.7719C28.8947 13.7719 26.6675 11.5447 26.6675 8.80768C26.6675 6.07031 28.8947 3.84345 31.6318 3.84345ZM15.0577 14.8026C17.7951 14.8026 20.022 17.0298 20.022 19.7668C20.022 22.5042 17.7951 24.7311 15.0577 24.7311C12.3204 24.7311 10.0935 22.5042 10.0935 19.7668C10.0935 17.0298 12.3204 14.8026 15.0577 14.8026ZM41 34.0292C41 34.9135 40.2831 35.6305 39.3984 35.6305H34.9948V40.0342C34.9948 40.9188 34.2778 41.6357 33.3935 41.6357C32.5089 41.6357 31.7919 40.9188 31.7919 40.0342V35.6305H27.3882C26.5039 35.6305 25.787 34.9135 25.787 34.0292C25.787 33.1446 26.5039 32.4277 27.3882 32.4277H31.7919V28.024C31.7919 27.1397 32.5089 26.4227 33.3935 26.4227C34.2778 26.4227 34.9948 27.1397 34.9948 28.024V32.4277H39.3984C40.2831 32.4277 41 33.1446 41 34.0292Z" fill="#CA2026"/>
</svg>
