<svg width="57" height="45" viewBox="0 0 57 45" fill="none" xmlns="http://www.w3.org/2000/svg">
<path d="M56.4232 11.0111L37.2748 0.496687C36.9412 0.313604 36.5368 0.313604 36.2032 0.496687L29.0026 4.45057C28.8399 4.4958 28.6882 4.57886 28.5594 4.69367L17.0548 11.0111C16.6986 11.2068 16.4773 11.5808 16.4773 11.987V14.2631H3.63281C3.0179 14.2631 2.51953 14.7619 2.51953 15.3764C2.51953 15.9913 3.0179 16.4897 3.63281 16.4897H16.4773V20.4975H10.0946C9.47971 20.4975 8.98135 20.9963 8.98135 21.6108C8.98135 22.2257 9.47971 22.724 10.0946 22.724H16.4773V28.5131H7.12573C6.51082 28.5131 6.01245 29.0119 6.01245 29.6264C6.01245 30.2413 6.51082 30.7397 7.12573 30.7397H16.4773V33.0162C16.4773 33.4224 16.6986 33.7964 17.0548 33.9921L36.2032 44.5065C36.3702 44.5983 36.5546 44.6439 36.739 44.6439C36.9234 44.6439 37.1078 44.5983 37.2748 44.5065L56.4232 33.9921C56.7794 33.7964 57.0007 33.4224 57.0007 33.0162V28.0308C57.0007 27.4163 56.5024 26.9175 55.8874 26.9175C55.2725 26.9175 54.7742 27.4163 54.7742 28.0308V32.3574L37.8523 41.6494V23.1602L43.2339 20.2052V24.8949C43.2339 25.2889 43.4417 25.6534 43.7805 25.8534C43.9549 25.9565 44.151 26.0082 44.3472 26.0082C44.5315 26.0082 44.7164 25.9626 44.8838 25.8704L48.9873 23.6121C49.3426 23.4164 49.5635 23.0428 49.5635 22.6366V16.7297L54.7742 13.8687V19.1246C54.7742 19.7395 55.2725 20.2379 55.8874 20.2379C56.5024 20.2379 57.0007 19.7395 57.0007 19.1246V11.987C57.0007 11.5808 56.7794 11.2068 56.4232 11.0111ZM35.6257 41.6494L18.7039 32.3574V13.8687L35.6257 23.1602V41.6494ZM36.739 21.2315L19.9037 11.987L25.1948 9.08156L42.0306 18.3261L36.739 21.2315ZM44.3437 17.0559L27.5079 7.81129L29.3331 6.80934L46.1684 16.0539L44.3437 17.0559ZM47.3369 21.9787L45.4604 23.0115V18.9828L47.3369 17.9522V21.9787ZM48.4815 14.7837L31.6462 5.53907L36.739 2.74282L53.5743 11.987L48.4815 14.7837Z" fill="#CA2026"/>
<path d="M55.8867 22.4688C55.594 22.4688 55.3066 22.5866 55.0996 22.7949C54.8926 23.0019 54.7734 23.2881 54.7734 23.582C54.7734 23.8747 54.8926 24.1622 55.0996 24.3692C55.3066 24.5762 55.594 24.6953 55.8867 24.6953C56.1794 24.6953 56.4668 24.5762 56.6738 24.3692C56.8808 24.1622 57 23.8747 57 23.582C57 23.2881 56.8808 23.0019 56.6738 22.7949C56.4668 22.5866 56.1794 22.4688 55.8867 22.4688Z" fill="#CA2026"/>
<path d="M2.70884 28.5156H1.11328C0.498367 28.5156 0 29.0144 0 29.6289C0 30.2438 0.498367 30.7422 1.11328 30.7422H2.70884C3.32375 30.7422 3.82212 30.2438 3.82212 29.6289C3.82212 29.0144 3.32375 28.5156 2.70884 28.5156Z" fill="#CA2026"/>
<path d="M6.75391 21.6133C6.75391 21.3206 6.63475 21.0336 6.42731 20.8266C6.22031 20.6192 5.9333 20.5 5.64062 20.5C5.34752 20.5 5.0605 20.6192 4.8535 20.8266C4.6452 21.0336 4.52734 21.3206 4.52734 21.6133C4.52734 21.9064 4.6452 22.1934 4.8535 22.4004C5.0605 22.6074 5.34752 22.7266 5.64062 22.7266C5.9333 22.7266 6.22031 22.6078 6.42731 22.4004C6.63475 22.1934 6.75391 21.9064 6.75391 21.6133Z" fill="#CA2026"/>
</svg>
