<svg width="44" height="45" viewBox="0 0 44 45" fill="none" xmlns="http://www.w3.org/2000/svg">
<path d="M16.8301 34.7058C16.1194 34.7058 15.541 34.1274 15.541 33.4167C15.541 32.7047 14.964 32.1277 14.252 32.1277C13.5399 32.1277 12.9629 32.7047 12.9629 33.4167C12.9629 35.1022 14.0472 36.5383 15.5548 37.0667V38.1953C15.5548 38.9073 16.1318 39.4844 16.8438 39.4844C17.5558 39.4844 18.1329 38.9073 18.1329 38.1953V37.0573C19.6261 36.5215 20.6973 35.0922 20.6973 33.4167C20.6973 31.2844 18.9624 29.5495 16.8301 29.5495C16.1194 29.5495 15.541 28.9711 15.541 28.2605C15.541 27.5495 16.1194 26.9714 16.8301 26.9714C17.5407 26.9714 18.1191 27.5495 18.1191 28.2605C18.1191 28.9725 18.6962 29.5495 19.4082 29.5495C20.1202 29.5495 20.6973 28.9725 20.6973 28.2605C20.6973 26.585 19.6261 25.1556 18.1329 24.6195V22.7266C18.1329 22.0146 17.5558 21.4375 16.8438 21.4375C16.1318 21.4375 15.5548 22.0146 15.5548 22.7266V24.6101C14.0472 25.1385 12.9629 26.5746 12.9629 28.2605C12.9629 30.3928 14.6978 32.1277 16.8301 32.1277C17.5407 32.1277 18.1191 32.7057 18.1191 33.4167C18.1191 34.1274 17.5407 34.7058 16.8301 34.7058Z" fill="#CA2026"/>
<path d="M5.25427 42.5355C7.9368 43.9716 11.6197 44.6406 16.8438 44.6406C21.0943 44.6406 24.2935 44.2002 26.7789 43.2636C27.4889 44.1049 28.55 44.6406 29.7344 44.6406H40.1328C42.2651 44.6406 44 42.9058 44 40.7734C44 39.7838 43.6257 38.8801 43.0121 38.1953C43.626 37.5105 44 36.6068 44 35.6172C44 34.6276 43.6257 33.7239 43.0121 33.0391C43.626 32.3542 44 31.4506 44 30.4609C44 29.4713 43.6257 28.5676 43.0121 27.8828C43.626 27.198 44 26.2943 44 25.3047C44 23.1724 42.2651 21.4375 40.1328 21.4375H29.7344C29.6088 21.4375 29.4846 21.4439 29.3621 21.456C28.0683 19.8889 26.5523 18.575 24.8819 17.5673C25.4939 16.8831 25.8672 15.9805 25.8672 14.9922C25.8672 13.4517 24.9615 12.119 23.6546 11.4976L25.8037 4.90762C25.9316 4.51486 25.8638 4.08484 25.6215 3.75082C25.3788 3.41647 24.991 3.21875 24.5781 3.21875H20.4894C19.957 1.7182 18.5242 0.640625 16.8438 0.640625C15.1629 0.640625 13.7295 1.7182 13.1974 3.21875H9.10938C8.69647 3.21875 8.30875 3.41647 8.06604 3.75082C7.82367 4.08484 7.75586 4.51486 7.88376 4.90762L10.0329 11.4976C8.72601 12.119 7.82031 13.4517 7.82031 14.9922C7.82031 15.9811 8.19394 16.8845 8.80692 17.569C3.63489 20.6906 0 26.6193 0 33.0391C0 37.4739 1.76776 40.6687 5.25427 42.5355ZM41.4219 30.4609C41.4219 31.1716 40.8435 31.75 40.1328 31.75H29.7344C29.0237 31.75 28.4453 31.1716 28.4453 30.4609C28.4453 29.7503 29.0237 29.1719 29.7344 29.1719H40.1328C40.8435 29.1719 41.4219 29.7503 41.4219 30.4609ZM41.4219 35.6172C41.4219 36.3279 40.8435 36.9062 40.1328 36.9062H29.7344C29.0237 36.9062 28.4453 36.3279 28.4453 35.6172C28.4453 34.9065 29.0237 34.3281 29.7344 34.3281H40.1328C40.8435 34.3281 41.4219 34.9065 41.4219 35.6172ZM40.1328 42.0625H29.7344C29.0237 42.0625 28.4453 41.4841 28.4453 40.7734C28.4453 40.0628 29.0237 39.4844 29.7344 39.4844H40.1328C40.8435 39.4844 41.4219 40.0628 41.4219 40.7734C41.4219 41.4841 40.8435 42.0625 40.1328 42.0625ZM41.4219 25.3047C41.4219 26.0154 40.8435 26.5938 40.1328 26.5938H29.7344C29.0237 26.5938 28.4453 26.0154 28.4453 25.3047C28.4453 24.594 29.0237 24.0156 29.7344 24.0156H40.1328C40.8435 24.0156 41.4219 24.594 41.4219 25.3047ZM21.9631 16.2812H11.7248C11.7133 16.2809 11.7019 16.2812 11.6905 16.2812H11.6875C10.9768 16.2812 10.3984 15.7029 10.3984 14.9922C10.3984 14.2829 10.9745 13.7055 11.6835 13.7035H11.6872C11.6902 13.7035 11.6932 13.7031 11.6962 13.7031H21.9909C21.994 13.7031 21.9973 13.7035 22.0003 13.7035H22.004C22.713 13.7055 23.2891 14.2829 23.2891 14.9922C23.2891 15.7029 22.7107 16.2812 22 16.2812H21.996C21.9852 16.2812 21.9742 16.2809 21.9631 16.2812ZM14.2656 5.79688C14.9776 5.79688 15.5547 5.21982 15.5547 4.50781C15.5547 3.79715 16.1331 3.21875 16.8438 3.21875C17.5544 3.21875 18.1328 3.79715 18.1328 4.50781V7.08594C18.1328 7.79794 18.7099 8.375 19.4219 8.375C20.1339 8.375 20.7109 7.79794 20.7109 7.08594V5.79688H22.802L21.0644 11.125H12.6231L10.8855 5.79688H14.2656ZM11.9389 18.8594H21.7435C23.6956 19.6748 25.4748 20.9588 26.9585 22.6161C26.2838 23.3127 25.8672 24.2607 25.8672 25.3047C25.8672 26.2943 26.2415 27.198 26.8551 27.8828C26.2415 28.5676 25.8672 29.4713 25.8672 30.4609C25.8672 31.4506 26.2415 32.3542 26.8551 33.0391C26.2415 33.7239 25.8672 34.6276 25.8672 35.6172C25.8672 36.6068 26.2415 37.5105 26.8551 38.1953C26.2415 38.8801 25.8672 39.7838 25.8672 40.7734C25.8672 40.8 25.8685 40.8261 25.8692 40.8523C23.6885 41.6758 20.7841 42.0625 16.8438 42.0625C12.0608 42.0625 8.76462 41.4905 6.47116 40.2625C3.81516 38.8405 2.57812 36.5454 2.57812 33.0391C2.57812 26.959 6.41577 21.1649 11.9389 18.8594Z" fill="#CA2026"/>
</svg>
