<svg width="25" height="10" viewBox="0 0 25 10" fill="none" xmlns="http://www.w3.org/2000/svg">
<path d="M13.7422 0.472656C11.6723 0.473608 9.60656 0.466997 7.53906 0.474609C5.79404 0.480964 4.61931 1.08249 3.92871 2.19922H3.92773C3.63749 2.66816 3.36147 3.14344 3.08496 3.62305V3.62402C3.03397 3.71269 2.96336 3.80039 2.85645 3.86719C2.80522 3.89919 2.7515 3.92215 2.69727 3.93945L2.53418 3.97559C2.20019 4.0235 1.86702 4.07338 1.53516 4.12598L0.543945 4.29395C0.503187 4.30143 0.455421 4.31911 0.385742 4.35352C0.381026 4.35584 0.375784 4.35845 0.370117 4.36133C0.387597 4.39384 0.397478 4.40925 0.405273 4.41797C0.771449 4.82793 0.864322 5.27463 0.862305 5.7041L0.855469 5.88672C0.82785 6.35658 0.848311 6.82495 0.857422 7.32324V7.32422C0.857637 7.33864 0.858978 7.35316 0.862305 7.36426L0.866211 7.37402C1.31187 7.94153 1.81909 8.55807 2.26953 9.13574C2.33151 9.21512 2.3905 9.26031 2.45312 9.28711C2.50162 9.30778 2.56628 9.3231 2.65723 9.32617L2.75781 9.3252L3.06055 9.31445C3.36488 9.3099 3.67145 9.32034 3.94531 9.31934L4.07422 9.31348C4.17864 9.30357 4.21586 9.28365 4.22461 9.27734C4.22472 9.27726 4.22519 9.27791 4.22852 9.27051C4.23366 9.25899 4.243 9.23048 4.24707 9.17285C4.2846 8.64365 4.59669 8.197 5.02539 7.89258C5.45494 7.58756 6.02045 7.40953 6.625 7.41113C7.71809 7.41406 8.76097 8.02147 8.95605 8.9668L8.98438 9.16113C8.98913 9.22214 8.99887 9.2533 9.00488 9.2666C9.0089 9.2754 9.01076 9.27568 9.01172 9.27637C9.02597 9.28639 9.09237 9.31911 9.30371 9.31934H16.6543C16.8763 9.31931 16.9433 9.28607 16.957 9.27637C16.9571 9.27629 16.9594 9.27679 16.9639 9.2666C16.9705 9.25169 16.9803 9.218 16.9854 9.15234C17.0254 8.63217 17.3318 8.19448 17.7539 7.89453C18.1765 7.5943 18.7322 7.41699 19.3301 7.41113C19.9228 7.40552 20.4829 7.57733 20.9131 7.87207C21.288 8.12898 21.5814 8.49294 21.6855 8.92676L21.7178 9.11719C21.7324 9.25644 21.7718 9.279 21.7871 9.28809C21.8282 9.31242 21.9371 9.34431 22.1904 9.31738H22.1914C23.0801 9.22314 23.7917 8.72072 24.0215 8.17188L24.0605 8.06152C24.0724 8.02124 24.0892 7.9733 24.1025 7.93457V5.29102C23.9915 5.11449 23.7754 4.99112 23.3682 4.9043C22.0137 4.61612 20.667 4.30688 19.3242 3.99707C19.1358 3.95381 18.9235 3.84701 18.7871 3.69727C18.2103 3.0672 17.6474 2.43052 17.0859 1.79785C16.3091 0.923056 15.2103 0.472203 13.7422 0.472656ZM13.7471 0.555664C15.0032 0.555246 16.0192 0.944762 16.75 1.77246C17.3166 2.41352 17.9446 3.09304 18.5156 3.74414C18.6177 3.86035 18.7404 3.94599 18.917 4.00781L19.1123 4.06152C19.8077 4.21125 20.5017 4.36542 21.1943 4.52148L23.2695 4.99316C23.3256 5.00587 23.3985 5.0273 23.4639 5.05469C23.4951 5.06778 23.5396 5.08862 23.582 5.11816C23.6031 5.13284 23.6355 5.15757 23.666 5.19434C23.6949 5.22911 23.7427 5.29909 23.75 5.40039C23.7703 5.68074 23.7617 5.96922 23.7617 6.23145V6.57031H23.4229C23.0593 6.57031 22.7719 6.55922 22.4766 6.5752C22.4009 6.57929 22.3246 6.60009 22.2676 6.62207L22.2686 6.62305C22.2917 6.63498 22.3365 6.64946 22.4111 6.65039C22.7402 6.65416 23.0666 6.65137 23.3926 6.65137H23.7305V6.98926C23.7305 7.15648 23.742 7.29304 23.7471 7.47852C23.7517 7.64892 23.7497 7.83669 23.7139 8.02832C23.5967 8.65335 23.0612 8.99706 22.4512 9.16309L22.1709 9.23926L22.0527 8.97363C22.0431 8.95216 22.0022 8.86746 21.9805 8.80371L21.9795 8.80469C21.6849 7.94864 20.685 7.32438 19.3232 7.33496C17.961 7.34573 16.9597 7.99651 16.708 8.83496C16.6737 8.94966 16.6041 9.08258 16.4541 9.16309C16.3305 9.22934 16.1965 9.23265 16.1133 9.23242C14.0294 9.22909 11.945 9.22814 9.86133 9.23242V9.23145C9.76087 9.23168 9.62109 9.2243 9.49414 9.14551C9.3552 9.05925 9.29509 8.93012 9.2627 8.83984C9.00155 8.11554 8.39047 7.60028 7.31934 7.39453C6.23939 7.18734 5.3236 7.40856 4.57324 7.99609C4.22604 8.26821 4.03132 8.59686 3.92676 8.98047L3.8584 9.22949H3.60059C3.38775 9.22949 3.23057 9.22212 3.0625 9.23145C2.95221 9.23753 2.83501 9.22777 2.7207 9.17871C2.60358 9.12843 2.51899 9.04976 2.45508 8.96777L2.45605 8.9668L1.3584 7.59375C1.35316 7.58723 1.34819 7.58202 1.33496 7.56641C1.32422 7.55373 1.30733 7.53402 1.29102 7.51172C1.266 7.4775 1.19884 7.381 1.19531 7.24805V7.24707C1.18756 6.91116 1.19043 6.57219 1.19043 6.23242V5.89355H1.83789C2.10315 5.89206 2.32388 5.90072 2.55664 5.88672C2.62617 5.88254 2.67012 5.86412 2.69434 5.84961C2.68441 5.84368 2.67262 5.8351 2.65625 5.8291L2.5498 5.80762L2.21973 5.80273H1.36426L1.29102 5.56348C1.19681 5.25585 1.11024 4.97649 1.02148 4.68652L0.90625 4.30957L1.2959 4.25195C1.78931 4.17937 2.34664 4.08414 2.90137 4.02051C3.03543 4.00496 3.1183 3.97566 3.17188 3.94434C3.19657 3.92985 3.21911 3.91259 3.24023 3.89062L3.2998 3.80859C3.61431 3.25918 3.95121 2.71179 4.27148 2.1748C4.9235 1.081 6.05115 0.561185 7.54102 0.557617C9.60928 0.552381 11.6796 0.55709 13.7461 0.555664H13.7471Z" fill="#CA2026" stroke="#CA2026" stroke-width="0.67705"/>
<path d="M12.2002 2.00391C12.1107 2.00506 12.0827 2.02875 12.0811 2.03027C12.0798 2.03141 12.078 2.0327 12.0762 2.03711L12.0703 2.08105L12.0684 3.63184C12.069 4.05336 12.0684 4.47532 12.0684 4.89746L12.0693 7.64648C12.0695 7.70954 12.0772 7.74038 12.082 7.75391C12.089 7.75763 12.1064 7.76678 12.1426 7.77441C12.1939 7.78519 12.2685 7.79276 12.375 7.79297C13.2549 7.79439 14.1411 7.79073 15.0254 7.79883L15.1396 7.7959C15.2435 7.78961 15.3181 7.77321 15.373 7.75C15.4212 7.72962 15.4632 7.70074 15.502 7.65332L15.54 7.59863C15.8191 7.13982 16.2718 6.80008 16.7637 6.54492H16.7646C16.8751 6.48728 16.9241 6.43616 16.9473 6.40039C16.9577 6.38425 16.9664 6.3652 16.9727 6.34082L16.9814 6.24805C16.9756 5.93476 16.9761 5.62213 16.9766 5.31348C16.977 5.00382 16.9773 4.69784 16.9717 4.39258C16.9717 4.39258 16.9719 4.39131 16.9717 4.38965C16.9715 4.38791 16.9714 4.38492 16.9707 4.38184C16.9693 4.37568 16.9665 4.36813 16.9629 4.35938C16.9552 4.34053 16.9441 4.32277 16.9326 4.30957V4.30859C16.4157 3.71244 15.888 3.12065 15.3574 2.52832C15.0803 2.21945 14.6597 2.03919 14.1104 2.01367L14.1113 2.0127C13.4818 1.98374 12.8469 1.99577 12.2002 2.00391ZM13.709 2.07031C14.3031 2.04547 14.7894 2.22651 15.1455 2.62891L16.4873 4.14941C16.6119 4.29334 16.6241 4.46975 16.625 4.55273V4.55371C16.6272 4.80975 16.63 5.06671 16.6299 5.32422L16.6221 6.09766C16.6201 6.2061 16.5829 6.30372 16.54 6.37695C16.496 6.45214 16.4291 6.53028 16.3389 6.58691C16.0267 6.78277 15.7536 6.9993 15.5166 7.2373L15.292 7.48242C15.2507 7.53107 15.1965 7.57814 15.1387 7.61523C15.0886 7.64733 14.9906 7.70209 14.8682 7.7041H14.8662C14.1671 7.71079 13.4662 7.70801 12.7529 7.70801H12.4141V2.07227H12.7529C12.9284 2.07227 13.0905 2.07513 13.2471 2.07617L13.709 2.07031Z" fill="#CA2026" stroke="#CA2026" stroke-width="0.67705"/>
<path d="M10.0566 2.00391C9.26923 2.00295 8.48254 2.002 7.69531 2.00391C6.83746 2.00607 6.31193 2.29868 6.01465 2.81348C5.67034 3.40963 5.32562 3.99931 4.99805 4.59375C4.96572 4.65253 4.94332 4.72265 4.93262 4.79688L4.92578 4.87305C4.9116 5.24209 4.91718 5.61369 4.9248 5.99414V5.99512C4.92548 6.02682 4.9323 6.03967 4.93359 6.04199C4.93407 6.04282 4.93589 6.04558 4.94531 6.05078C4.97041 6.06455 5.05158 6.09006 5.21484 6.05664C6.45678 5.80178 7.70888 5.80608 8.87207 6.37891C9.27607 6.57792 9.62925 6.83907 9.94824 7.06152C10.1008 7.1677 10.1747 7.18507 10.2744 7.15527C10.3117 7.14414 10.3311 7.13287 10.3398 7.12695C10.3435 7.12443 10.3458 7.12293 10.3467 7.12207L10.3477 7.12012L10.3486 7.11914C10.3493 7.11744 10.3503 7.11385 10.3516 7.1084C10.3543 7.09681 10.3566 7.07752 10.3564 7.04785C10.3513 6.22015 10.3545 5.39048 10.3545 4.56543C10.3545 3.75597 10.3551 2.9476 10.3545 2.13867C10.3544 2.08235 10.3485 2.05389 10.3447 2.04297C10.3389 2.03954 10.3209 2.02999 10.2812 2.02148C10.2314 2.01081 10.1589 2.00401 10.0566 2.00391ZM10.0068 6.78906L9.50879 6.52344C8.92912 6.21368 8.3347 6.00783 7.68066 5.89648C7.02245 5.78433 6.35569 5.79052 5.66406 5.87695L5.3125 5.9209L5.28516 5.56738C5.26084 5.25897 5.19012 4.8102 5.44043 4.38477C5.76312 3.83693 6.08745 3.25595 6.42285 2.69922C6.68397 2.26614 7.14895 2.08932 7.66016 2.08594C8.20258 2.0826 8.74611 2.08496 9.28516 2.08496H10.0068V6.78906Z" fill="#CA2026" stroke="#CA2026" stroke-width="0.67705"/>
</svg>
