<svg width="20" height="23" viewBox="0 0 20 23" fill="none" xmlns="http://www.w3.org/2000/svg">
<path d="M4.28599 0C3.50028 0 2.85742 0.642857 2.85742 1.42857V21.4286C2.85742 22.2143 3.50028 22.8571 4.28599 22.8571H18.5717C19.3574 22.8571 20.0003 22.2143 20.0003 21.4286V5.71429L14.286 0H4.28599Z" fill="#E2E5E7"/>
<path d="M15.7142 5.71429H19.9999L14.2856 0V4.28571C14.2856 5.07143 14.9285 5.71429 15.7142 5.71429Z" fill="#B0B7BD"/>
<path d="M20.0001 10.0006L15.7144 5.71484H20.0001V10.0006Z" fill="#CAD1D8"/>
<path d="M17.1429 18.572C17.1429 18.9648 16.8214 19.2863 16.4286 19.2863H0.714286C0.321429 19.2863 0 18.9648 0 18.572V11.4291C0 11.0363 0.321429 10.7148 0.714286 10.7148H16.4286C16.8214 10.7148 17.1429 11.0363 17.1429 11.4291V18.572Z" fill="#F15642"/>
<path d="M3.11377 13.533C3.11377 13.3444 3.26234 13.1387 3.50163 13.1387H4.82091C5.56377 13.1387 6.23234 13.6358 6.23234 14.5887C6.23234 15.4915 5.56377 15.9944 4.82091 15.9944H3.86734V16.7487C3.86734 17.0001 3.70734 17.1422 3.50163 17.1422C3.31306 17.1422 3.11377 17.0001 3.11377 16.7487V13.533ZM3.86734 13.858V15.2808H4.82091C5.20377 15.2808 5.50663 14.943 5.50663 14.5887C5.50663 14.1894 5.20377 13.858 4.82091 13.858H3.86734Z" fill="white"/>
<path d="M7.35083 17.1416C7.16226 17.1416 6.95654 17.0387 6.95654 16.788V13.5437C6.95654 13.3387 7.16226 13.1895 7.35083 13.1895H8.65869C11.2687 13.1895 11.2115 17.1416 8.71011 17.1416H7.35083ZM7.71083 13.8866V16.4452H8.65869C10.2008 16.4452 10.2694 13.8866 8.65869 13.8866H7.71083Z" fill="white"/>
<path d="M12.1373 13.933V14.8409H13.5937C13.7994 14.8409 14.0051 15.0466 14.0051 15.2459C14.0051 15.4345 13.7994 15.5887 13.5937 15.5887H12.1373V16.788C12.1373 16.988 11.9951 17.1416 11.7951 17.1416C11.5437 17.1416 11.3901 16.988 11.3901 16.788V13.5437C11.3901 13.3387 11.5444 13.1895 11.7951 13.1895H13.8001C14.0516 13.1895 14.2001 13.3387 14.2001 13.5437C14.2001 13.7266 14.0516 13.9323 13.8001 13.9323H12.1373V13.933Z" fill="white"/>
<path d="M16.4289 19.2866H2.85742V20.0008H16.4289C16.8217 20.0008 17.1431 19.6794 17.1431 19.2866V18.5723C17.1431 18.9651 16.8217 19.2866 16.4289 19.2866Z" fill="#CAD1D8"/>
</svg>
