<svg width="27" height="33" viewBox="0 0 27 33" fill="none" xmlns="http://www.w3.org/2000/svg">
<path d="M25.8584 19.3464L23.3759 13.2063C22.7314 11.6125 21.2042 10.5826 19.485 10.5826H18.0141C19.0906 9.45805 19.7528 7.93399 19.7528 6.25808C19.7529 2.80738 16.9455 0 13.4948 0C10.044 0 7.23662 2.80738 7.23662 6.25814C7.23662 7.93405 7.89894 9.45811 8.97538 10.5826H7.50449C5.78527 10.5826 4.25805 11.6125 3.61358 13.2064L1.13111 19.3464C0.509393 20.8842 0.943485 22.6359 2.21134 23.7055L5.62111 26.5818C6.37269 30.2401 9.61726 33 13.4948 33C17.3725 33 20.6174 30.24 21.3688 26.5813L24.7781 23.7054C26.046 22.6359 26.4801 20.8842 25.8584 19.3464ZM9.17022 6.25814C9.17022 3.87357 11.1102 1.93359 13.4948 1.93359C15.8793 1.93359 17.8193 3.87357 17.8193 6.25814C17.8193 8.64265 15.8793 10.5826 13.4948 10.5826C11.1102 10.5826 9.17022 8.64265 9.17022 6.25814ZM7.81696 27.2015L8.70293 27.3467L9.16493 25.9285H10.6445C10.945 26.8117 11.6447 27.5114 12.528 27.8118V30.9884C10.3768 30.6444 8.59768 29.1737 7.81696 27.2015ZM9.37846 20.4576C10.4647 19.4639 11.9101 18.8569 13.4948 18.8569C15.0793 18.8569 16.5241 19.4643 17.6103 20.4577L16.1761 20.8681L17.1947 23.9949H16.345C15.9413 22.8079 14.8165 21.9513 13.4948 21.9513C12.173 21.9513 11.0483 22.8079 10.6445 23.9949H9.79483L10.8134 20.8681L9.37846 20.4576ZM13.4948 26.0384C12.901 26.0384 12.4179 25.5554 12.4179 24.9617C12.4179 24.3679 12.901 23.8848 13.4948 23.8848C14.0885 23.8848 14.5716 24.3679 14.5716 24.9617C14.5716 25.5554 14.0885 26.0384 13.4948 26.0384ZM14.4616 30.9884V27.8118C15.3448 27.5114 16.0445 26.8117 16.345 25.9285H17.8246L18.2866 27.3467L19.1719 27.2016C18.3911 29.1736 16.6126 30.6444 14.4616 30.9884ZM23.5314 22.2274L20.1468 25.0824L19.6111 25.1702L18.6355 22.1755L19.4551 21.9411L20.5395 21.9711L20.593 20.0383L19.8272 20.0171C18.3547 18.1353 16.0639 16.9233 13.4947 16.9233C10.9257 16.9233 8.63526 18.1354 7.16276 20.017L6.39641 20.0383L6.44991 21.9711L7.53427 21.9411L8.35385 22.1755L7.37829 25.1702L6.84262 25.0824L3.45799 22.2274C2.83087 21.6983 2.61604 20.8318 2.92361 20.0711L5.40609 13.9312C5.75369 13.0715 6.57727 12.5162 7.50443 12.5162H19.4849C20.4121 12.5162 21.2356 13.0715 21.5832 13.9311L24.0657 20.0712C24.3733 20.8318 24.1585 21.6983 23.5314 22.2274Z" fill="#CA2026"/>
</svg>
