<svg width="40" height="40" viewBox="0 0 40 40" fill="none" xmlns="http://www.w3.org/2000/svg">
<rect width="40" height="40" rx="8" fill="#EAF5FF"/>
<path d="M18.4902 10.2286L13.5002 12.1086C12.3502 12.5386 11.4102 13.8986 11.4102 15.1186V22.5486C11.4102 23.7286 12.1902 25.2786 13.1402 25.9886L17.4402 29.1986C18.8502 30.2586 21.1702 30.2586 22.5802 29.1986L26.8802 25.9886C27.8302 25.2786 28.6102 23.7286 28.6102 22.5486V15.1186C28.6102 13.8886 27.6702 12.5286 26.5202 12.0986L21.5302 10.2286C20.6802 9.91859 19.3202 9.91859 18.4902 10.2286Z" fill="#2196F3"/>
<path d="M17.0508 19.8697L18.6608 21.4797L22.9608 17.1797" fill="#2196F3"/>
<path d="M17.0508 19.8697L18.6608 21.4797L22.9608 17.1797" stroke="white" stroke-width="1.5" stroke-linecap="round" stroke-linejoin="round"/>
</svg>
