<svg width="40" height="40" viewBox="0 0 40 40" fill="none" xmlns="http://www.w3.org/2000/svg">
<rect width="40" height="40" rx="8" fill="#FCF2F2"/>
<path d="M18.7489 10.4503C19.4489 9.86031 20.5789 9.86031 21.2589 10.4503L22.8389 11.8003C23.1389 12.0503 23.7089 12.2603 24.1089 12.2603H25.8089C26.8689 12.2603 27.7389 13.1303 27.7389 14.1903V15.8903C27.7389 16.2903 27.9489 16.8503 28.1989 17.1503L29.5489 18.7303C30.1389 19.4303 30.1389 20.5603 29.5489 21.2403L28.1989 22.8203C27.9489 23.1203 27.7389 23.6803 27.7389 24.0803V25.7803C27.7389 26.8403 26.8689 27.7103 25.8089 27.7103H24.1089C23.7089 27.7103 23.1489 27.9203 22.8489 28.1703L21.2689 29.5203C20.5689 30.1103 19.4389 30.1103 18.7589 29.5203L17.1789 28.1703C16.8789 27.9203 16.3089 27.7103 15.9189 27.7103H14.1689C13.1089 27.7103 12.2389 26.8403 12.2389 25.7803V24.0703C12.2389 23.6803 12.0389 23.1103 11.7889 22.8203L10.4389 21.2303C9.85891 20.5403 9.85891 19.4203 10.4389 18.7303L11.7889 17.1403C12.0389 16.8403 12.2389 16.2803 12.2389 15.8903V14.2003C12.2389 13.1403 13.1089 12.2703 14.1689 12.2703H15.8989C16.2989 12.2703 16.8589 12.0603 17.1589 11.8103L18.7489 10.4503Z" fill="#D93243"/>
<path d="M20 16.1289V20.9589" stroke="white" stroke-width="1.5" stroke-linecap="round" stroke-linejoin="round"/>
<path d="M19.9922 24H20.0012" stroke="white" stroke-width="2" stroke-linecap="round" stroke-linejoin="round"/>
</svg>
